<svg id="Layer_1" data-name="Layer 1" xmlns="http://www.w3.org/2000/svg" viewBox="0 0 232.44 232.44"><defs><style>.cls-1{fill:#e31b23;}.cls-2{fill:#fff;}</style></defs><rect class="cls-1" width="232.44" height="232.44"/><path class="cls-2" d="M208.64,139.7c0-1.14-.56-1.35-.95-1.35S156,136.7,156,136.7c0-.88-.11-1.74-.19-2.59l51.32-10.73a.63.63,0,0,0-.18-1L155,129.82c-.19-.85-.4-1.69-.67-2.53l48.69-19.47a.65.65,0,0,0-.35-1l-49.79,16.36c-.35-.82-.75-1.59-1.14-2.35l44.56-27.65c.23-.81-.49-.89-.49-.89l-46.24,24.76c-.48-.72-1-1.42-1.5-2.12l39.12-35a.65.65,0,0,0-.67-.79l-41.25,32.44c-.59-.64-1.2-1.25-1.82-1.85l32.44-41.24a.65.65,0,0,0-.8-.66l-35,39.11c-.72-.51-1.42-1-2.15-1.51l24.8-46.25a.63.63,0,0,0-.88-.5l-27.67,44.59c-.78-.39-1.56-.79-2.35-1.14l16.37-49.83a.62.62,0,0,0-.94-.35l-19.49,48.7c-.84-.25-1.69-.45-2.54-.65l7.47-51.95c-.5-.68-1-.18-1-.18L121.05,99.29c-.85-.1-1.72-.14-2.59-.21l-1.67-52.47a.62.62,0,0,0-1,0l-1.67,52.47c-.87,0-1.74.09-2.58.2L100.8,47.91a.67.67,0,0,0-1,.17l7.48,52c-.84.2-1.69.4-2.52.65L85.22,52a.62.62,0,0,0-1,.35l16.38,49.82c-.82.36-1.59.75-2.36,1.15L70.63,58.68a.63.63,0,0,0-.88.51l24.77,46.24c-.73.49-1.43,1-2.13,1.5l-35-39.11a.64.64,0,0,0-.79.66l32.45,41.24c-.63.6-1.25,1.2-1.85,1.84L46,79.11a.65.65,0,0,0-.67.79l39.1,35c-.51.68-1,1.37-1.5,2.1L36.67,92.22a.63.63,0,0,0-.5.89l44.55,27.65c-.38.77-.77,1.55-1.12,2.35L29.81,106.74c-.77.36-.37,1-.37,1l48.67,19.49c-.26.82-.46,1.67-.65,2.53l-51.91-7.47a.62.62,0,0,0-.19,1L76.68,134c-.09.85-.16,1.72-.2,2.6l-52,1.65c-.53.21-.71.42-.68,1.46Z" transform="translate(0 0)"/><path class="cls-2" d="M32.79,173.83a6.11,6.11,0,0,0,.38,2.24c.76,2,3,2.48,5,2.48,1.73,0,4.35-.58,4.35-3.11,0-1.76-1.47-2.24-7.34-3.91-5.4-1.53-11.56-3-11.56-9.89,0-7.88,6.74-11.27,13.75-11.27,7.39,0,13.93,2.81,14.23,11.12H41.68a2.64,2.64,0,0,0-1.26-2.72,5.46,5.46,0,0,0-3.09-.85c-1.43,0-3.78.37-3.78,2.29.18,2.43,5.06,2.95,9.88,4.3S53,168.09,53,174.35c0,8.89-8.18,11.75-15.78,11.75-3.85,0-14.89-1.38-15-12.27Z" transform="translate(0 0)"/><path class="cls-2" d="M86,172.09c0,9.47-5.11,14-15.51,14S55,181.56,55,172.09v-20.9h10.5v18.57c0,3.48,0,7.83,5.11,7.83s5-4.35,5-7.83V151.19H86Z" transform="translate(0 0)"/><path class="cls-2" d="M90.19,151.19H101l9.94,18.23H111V151.19h9.93v34.09H110.68l-10.44-18.62h-.11v18.62H90.19Z" transform="translate(0 0)"/><path class="cls-2" d="M125.25,151.19H136l9.93,18.23h.1V151.19H156v34.09H145.74l-10.45-18.62h-.1v18.62h-9.94Z" transform="translate(0 0)"/><path class="cls-2" d="M160.26,151.19h10.52v34.09H160.26Z" transform="translate(0 0)"/><path class="cls-2" d="M175.26,151.19h10.5v11.74h.11l9.36-11.74h13L195.8,164.51l14.37,20.77H197.1L188.67,172l-2.91,3.19v10.08h-10.5Z" transform="translate(0 0)"/></svg>